<svg width="1600" height="1200" viewBox="0 0 1600 1200" fill="none" xmlns="http://www.w3.org/2000/svg">
  <defs>
    <linearGradient id="bg" x1="0" y1="0" x2="1600" y2="1200" gradientUnits="userSpaceOnUse">
      <stop stop-color="#050816"/>
      <stop offset="0.55" stop-color="#071225"/>
      <stop offset="1" stop-color="#02040C"/>
    </linearGradient>
    <linearGradient id="panel" x1="0" y1="0" x2="1" y2="1">
      <stop stop-color="#0B1730" stop-opacity="0.78"/>
      <stop offset="1" stop-color="#0B1022" stop-opacity="0.38"/>
    </linearGradient>
    <filter id="blurSoft"><feGaussianBlur stdDeviation="12"/></filter>
    <filter id="blurGlow"><feGaussianBlur stdDeviation="26"/></filter>
  </defs>
  <rect width="1600" height="1200" fill="url(#bg)"/>
  <g opacity="0.28">
    <path d="M0 1120H1600" stroke="#0EF5FF" stroke-opacity="0.10"/>
    <path d="M0 960H1600" stroke="#0EF5FF" stroke-opacity="0.08"/>
    <path d="M0 800H1600" stroke="#0EF5FF" stroke-opacity="0.06"/>
    <path d="M0 640H1600" stroke="#0EF5FF" stroke-opacity="0.06"/>
    <path d="M0 480H1600" stroke="#0EF5FF" stroke-opacity="0.05"/>
    <path d="M0 320H1600" stroke="#0EF5FF" stroke-opacity="0.05"/>
    <path d="M0 160H1600" stroke="#0EF5FF" stroke-opacity="0.04"/>
    <path d="M200 0V1200" stroke="#0EF5FF" stroke-opacity="0.04"/>
    <path d="M520 0V1200" stroke="#0EF5FF" stroke-opacity="0.04"/>
    <path d="M840 0V1200" stroke="#0EF5FF" stroke-opacity="0.04"/>
    <path d="M1160 0V1200" stroke="#0EF5FF" stroke-opacity="0.04"/>
    <path d="M1480 0V1200" stroke="#0EF5FF" stroke-opacity="0.04"/>
  </g>
  <ellipse cx="320" cy="250" rx="180" ry="140" fill="#00F5D4" fill-opacity="0.15" filter="url(#blurGlow)"/>
  <ellipse cx="1260" cy="830" rx="240" ry="180" fill="#3B82F6" fill-opacity="0.18" filter="url(#blurGlow)"/>
  <ellipse cx="920" cy="330" rx="150" ry="120" fill="#A78BFA" fill-opacity="0.14" filter="url(#blurGlow)"/>
  <g opacity="0.92">
    <rect x="120" y="120" width="560" height="330" rx="28" fill="url(#panel)" stroke="#5EEAD4" stroke-opacity="0.18"/>
    <rect x="180" y="190" width="460" height="16" rx="8" fill="#153661"/>
    <rect x="180" y="228" width="120" height="10" rx="5" fill="#00F5D4" fill-opacity="0.86"/>
    <rect x="180" y="258" width="260" height="8" rx="4" fill="#C4B5FD" fill-opacity="0.72"/>
    <rect x="180" y="286" width="340" height="8" rx="4" fill="#9CA3AF" fill-opacity="0.52"/>
    <rect x="180" y="314" width="220" height="8" rx="4" fill="#00F5D4" fill-opacity="0.52"/>
    <rect x="180" y="342" width="290" height="8" rx="4" fill="#F59E0B" fill-opacity="0.60"/>
    <rect x="180" y="370" width="160" height="8" rx="4" fill="#3B82F6" fill-opacity="0.70"/>
  </g>
  <g opacity="0.88">
    <rect x="740" y="168" width="620" height="360" rx="30" fill="url(#panel)" stroke="#60A5FA" stroke-opacity="0.18"/>
    <rect x="790" y="228" width="250" height="18" rx="9" fill="#10274C"/>
    <rect x="790" y="274" width="500" height="10" rx="5" fill="#00F5D4" fill-opacity="0.64"/>
    <rect x="790" y="306" width="410" height="10" rx="5" fill="#E5E7EB" fill-opacity="0.44"/>
    <rect x="790" y="338" width="450" height="10" rx="5" fill="#A78BFA" fill-opacity="0.60"/>
    <rect x="790" y="370" width="320" height="10" rx="5" fill="#38BDF8" fill-opacity="0.54"/>
    <rect x="790" y="402" width="520" height="10" rx="5" fill="#F472B6" fill-opacity="0.42"/>
    <rect x="790" y="434" width="290" height="10" rx="5" fill="#34D399" fill-opacity="0.50"/>
  </g>
  <g opacity="0.84">
    <rect x="180" y="560" width="420" height="270" rx="26" fill="url(#panel)" stroke="#A78BFA" stroke-opacity="0.16"/>
    <rect x="230" y="620" width="220" height="14" rx="7" fill="#10274C"/>
    <rect x="230" y="668" width="300" height="9" rx="4.5" fill="#00F5D4" fill-opacity="0.56"/>
    <rect x="230" y="698" width="220" height="9" rx="4.5" fill="#F8FAFC" fill-opacity="0.34"/>
    <rect x="230" y="728" width="260" height="9" rx="4.5" fill="#F59E0B" fill-opacity="0.48"/>
  </g>
  <g opacity="0.88">
    <rect x="680" y="620" width="700" height="300" rx="30" fill="url(#panel)" stroke="#00F5D4" stroke-opacity="0.16"/>
    <rect x="735" y="680" width="210" height="18" rx="9" fill="#10274C"/>
    <rect x="735" y="728" width="560" height="10" rx="5" fill="#60A5FA" fill-opacity="0.56"/>
    <rect x="735" y="760" width="620" height="10" rx="5" fill="#E5E7EB" fill-opacity="0.28"/>
    <rect x="735" y="792" width="420" height="10" rx="5" fill="#C084FC" fill-opacity="0.54"/>
    <rect x="735" y="824" width="310" height="10" rx="5" fill="#00F5D4" fill-opacity="0.56"/>
  </g>
  <g filter="url(#blurSoft)" opacity="0.32">
    <path d="M116 1040C266 910 480 900 640 960C802 1022 1030 1084 1480 996" stroke="#00F5D4" stroke-width="4" stroke-linecap="round"/>
    <path d="M136 1080C316 948 530 946 728 1002C924 1058 1080 1072 1460 1022" stroke="#3B82F6" stroke-width="4" stroke-linecap="round"/>
  </g>
</svg>