<svg width="24" height="24" viewBox="0 0 24 24" fill="none" xmlns="http://www.w3.org/2000/svg">
<g clip-path="url(#clip0_344_45)">
<path d="M13.0022 4.27811L17.2787 6.46366C17.4326 6.54006 17.4363 6.75596 17.2787 6.82903L12.1957 9.42645C12.0419 9.50617 11.8618 9.49953 11.7155 9.42645L6.63615 6.82903C6.48234 6.75264 6.47484 6.53674 6.63615 6.46366L10.9089 4.27811V0L0 5.57682V16.7305L4.18651 14.5914V10.2203C4.18276 10.0642 4.39284 9.95458 4.54664 10.0376L9.62973 12.635C9.78354 12.7148 9.86982 12.8576 9.86982 13.0037V18.1986C9.87357 18.3547 9.66724 18.4643 9.51344 18.3813L5.23689 16.1957L1.04663 18.3381L11.9556 23.9149L22.8645 18.3381L18.6818 16.199L14.4052 18.3846C14.2552 18.4643 14.0413 18.3613 14.0488 18.2019V13.007C14.0488 12.8509 14.1464 12.7114 14.2889 12.6384L19.3682 10.0409C19.5183 9.9579 19.7321 10.0642 19.7284 10.2236V14.5947L23.9149 16.7338V5.57682L13.0022 0V4.27811Z" fill="white"/>
</g>
<defs>
<clipPath id="clip0_344_45">
<rect width="24" height="24" fill="white"/>
</clipPath>
</defs>
</svg>
